<svg width="43" height="38" viewBox="0 0 43 38" fill="none" xmlns="http://www.w3.org/2000/svg">
<path d="M37.3583 2.7729C36.9 1.42081 35.6167 0.458313 34.1042 0.458313H8.89583C7.38333 0.458313 6.12292 1.42081 5.64167 2.7729L1.12708 15.7666C0.966666 16.2479 0.875 16.7521 0.875 17.2791V33.6875C0.875 35.5896 2.41042 37.125 4.3125 37.125C6.21458 37.125 7.75 35.5896 7.75 33.6875V32.5416H35.25V33.6875C35.25 35.5666 36.7854 37.125 38.6875 37.125C40.5667 37.125 42.125 35.5896 42.125 33.6875V17.2791C42.125 16.775 42.0333 16.2479 41.8729 15.7666L37.3583 2.7729ZM8.89583 25.6666C6.99375 25.6666 5.45833 24.1312 5.45833 22.2291C5.45833 20.3271 6.99375 18.7916 8.89583 18.7916C10.7979 18.7916 12.3333 20.3271 12.3333 22.2291C12.3333 24.1312 10.7979 25.6666 8.89583 25.6666ZM34.1042 25.6666C32.2021 25.6666 30.6667 24.1312 30.6667 22.2291C30.6667 20.3271 32.2021 18.7916 34.1042 18.7916C36.0063 18.7916 37.5417 20.3271 37.5417 22.2291C37.5417 24.1312 36.0063 25.6666 34.1042 25.6666ZM5.45833 14.2083L8.36875 5.45415C8.68958 4.53748 9.56042 3.89581 10.5458 3.89581H32.4542C33.4396 3.89581 34.3104 4.53748 34.6312 5.45415L37.5417 14.2083H5.45833Z" fill="#7BD3EA"/>
</svg>
