<svg width="280" height="222" viewBox="0 0 280 222" fill="none" xmlns="http://www.w3.org/2000/svg">
<rect width="280" height="219" fill="#F6D6D6"/>
<circle cx="245.5" cy="31.5" r="28.5" fill="#A1EEBD"/>
<circle cx="39" cy="110" r="21" fill="#F6F7C4"/>
<circle cx="226" cy="187" r="21" fill="#7BD3EA"/>
<path d="M217 8L226.526 26H207.474L217 8Z" fill="#F6F7C4"/>
<path d="M241.5 180L258.387 211.5H224.613L241.5 180Z" fill="#A1EEBD"/>
<path d="M25 118L31.0622 129.25H18.9378L25 118Z" fill="#7BD3EA"/>
<path d="M39.3652 64.3799L38.1055 72.1875C37.5293 72.9883 36.8115 73.6182 35.9521 74.0771C35.1025 74.5264 34.1895 74.8438 33.2129 75.0293C32.2363 75.2148 31.2842 75.3027 30.3564 75.293C28.9404 75.2734 27.7441 74.9707 26.7676 74.3848C25.8008 73.7988 25.0342 73.0225 24.4678 72.0557C23.9014 71.0889 23.5205 70.0098 23.3252 68.8184C23.1396 67.627 23.1299 66.4062 23.2959 65.1562L23.5303 63.501C23.7256 62.1631 24.0674 60.8838 24.5557 59.6631C25.0537 58.4326 25.708 57.3438 26.5186 56.3965C27.3389 55.4395 28.3203 54.6924 29.4629 54.1553C30.6055 53.6084 31.9238 53.3496 33.418 53.3789C34.7754 53.4082 35.9375 53.6914 36.9043 54.2285C37.8809 54.7656 38.6426 55.5176 39.1895 56.4844C39.7461 57.4512 40.0732 58.5986 40.1709 59.9268H37.4463C37.3779 59.0869 37.1826 58.3545 36.8604 57.7295C36.5479 57.1045 36.0938 56.6162 35.498 56.2646C34.9121 55.9131 34.1797 55.7227 33.3008 55.6934C32.1875 55.6543 31.2207 55.8594 30.4004 56.3086C29.5898 56.748 28.9062 57.3486 28.3496 58.1104C27.8027 58.8623 27.3633 59.707 27.0312 60.6445C26.6992 61.5723 26.46 62.5146 26.3135 63.4717L26.0645 65.1709C25.957 66.001 25.9277 66.8701 25.9766 67.7783C26.0352 68.6768 26.2158 69.5166 26.5186 70.2979C26.8311 71.0791 27.3047 71.7188 27.9395 72.2168C28.5742 72.7051 29.4141 72.959 30.459 72.9785C31.0547 72.9883 31.6406 72.9492 32.2168 72.8613C32.8027 72.7734 33.3594 72.6172 33.8867 72.3926C34.4141 72.168 34.9072 71.8506 35.3662 71.4404L36.2305 66.665H31.4258L31.8359 64.3799H39.3652ZM47.2754 59.1504L44.5215 75H41.8701L44.624 59.1504H47.2754ZM45.1514 54.9902C45.1514 54.5312 45.293 54.1504 45.5762 53.8477C45.8691 53.5352 46.2451 53.374 46.7041 53.3643C47.1631 53.3545 47.5391 53.4961 47.832 53.7891C48.1348 54.082 48.2812 54.4531 48.2715 54.9023C48.2715 55.3516 48.1201 55.7275 47.8174 56.0303C47.5244 56.3232 47.1533 56.4746 46.7041 56.4844C46.2549 56.4941 45.8838 56.3623 45.5908 56.0889C45.2979 55.8057 45.1514 55.4395 45.1514 54.9902ZM53.9697 72.4219L60.21 59.1504H63.0078L54.9951 75H53.1348L53.9697 72.4219ZM52.5049 59.1504L54.7607 72.7588L54.6875 75H52.9883L49.8828 59.1504H52.5049ZM69.3359 75.293C68.252 75.2734 67.3096 75.0586 66.5088 74.6484C65.7178 74.2285 65.0684 73.667 64.5605 72.9639C64.0625 72.251 63.7061 71.4404 63.4912 70.5322C63.2764 69.624 63.2129 68.6719 63.3008 67.6758L63.3594 67.0459C63.457 66.0303 63.7061 65.0342 64.1064 64.0576C64.5068 63.0713 65.0391 62.1826 65.7031 61.3916C66.377 60.6006 67.168 59.9756 68.0762 59.5166C68.9941 59.0479 70.0098 58.8281 71.123 58.8574C72.2266 58.877 73.1445 59.1113 73.877 59.5605C74.6094 60.0098 75.1807 60.6055 75.5908 61.3477C76.0107 62.0801 76.2842 62.9053 76.4111 63.8232C76.5381 64.7314 76.5479 65.6641 76.4404 66.6211L76.2793 67.8369H64.7803L65.1318 65.625L73.9062 65.6396L73.9502 65.4053C74.0479 64.7021 74.0088 64.0234 73.833 63.3691C73.6572 62.7148 73.335 62.1777 72.8662 61.7578C72.4072 61.3281 71.7871 61.1035 71.0059 61.084C70.1953 61.0547 69.4922 61.2207 68.8965 61.582C68.3008 61.9336 67.8027 62.4121 67.4023 63.0176C67.002 63.6133 66.6846 64.2676 66.4502 64.9805C66.2256 65.6836 66.0693 66.3721 65.9814 67.0459L65.9229 67.6611C65.8643 68.2861 65.8838 68.916 65.9814 69.5508C66.0791 70.1855 66.2646 70.7666 66.5381 71.2939C66.8213 71.8115 67.2119 72.2363 67.71 72.5684C68.208 72.8906 68.8232 73.0615 69.5557 73.0811C70.4443 73.1006 71.2402 72.9102 71.9434 72.5098C72.6562 72.0996 73.3057 71.582 73.8916 70.957L75.4004 72.2461C74.9414 72.9199 74.3945 73.4863 73.7598 73.9453C73.125 74.4043 72.4316 74.7461 71.6797 74.9707C70.9277 75.1953 70.1465 75.3027 69.3359 75.293ZM90.0781 73.1982L96.7578 59.1504H99.6875L90.3857 77.4609C90.1416 77.9785 89.8535 78.4766 89.5215 78.9551C89.1992 79.4336 88.8281 79.8633 88.4082 80.2441C87.998 80.625 87.5342 80.9229 87.0166 81.1377C86.499 81.3525 85.9277 81.46 85.3027 81.46C85.0391 81.4502 84.7754 81.4209 84.5117 81.3721C84.2383 81.3232 83.9746 81.2695 83.7207 81.2109L83.8818 78.9844C83.999 79.0039 84.1162 79.0186 84.2334 79.0283C84.3506 79.0479 84.4629 79.0625 84.5703 79.0723C85.2246 79.0918 85.7861 78.999 86.2549 78.7939C86.7334 78.5889 87.1436 78.2861 87.4854 77.8857C87.8369 77.4854 88.1494 77.0068 88.4229 76.4502L90.0781 73.1982ZM89.3457 59.1504L91.2354 71.6016L91.4111 74.3994L89.4336 75.3662L86.5625 59.1504H89.3457ZM99.6729 67.3389L99.7168 67.002C99.834 65.9375 100.098 64.9121 100.508 63.9258C100.928 62.9395 101.479 62.0605 102.163 61.2891C102.847 60.5176 103.657 59.9121 104.595 59.4727C105.532 59.0332 106.577 58.8281 107.729 58.8574C108.843 58.877 109.795 59.1162 110.586 59.5752C111.387 60.0342 112.031 60.6445 112.52 61.4062C113.018 62.1582 113.364 63.0078 113.56 63.9551C113.755 64.9023 113.804 65.8789 113.706 66.8848L113.677 67.2217C113.55 68.2861 113.276 69.3066 112.856 70.2832C112.437 71.2598 111.88 72.1289 111.187 72.8906C110.503 73.6523 109.692 74.2529 108.755 74.6924C107.817 75.1221 106.777 75.3223 105.635 75.293C104.531 75.2734 103.579 75.0391 102.778 74.5898C101.987 74.1309 101.348 73.5254 100.859 72.7734C100.371 72.0215 100.029 71.1768 99.834 70.2393C99.6387 69.3018 99.585 68.335 99.6729 67.3389ZM102.354 67.002L102.324 67.3535C102.256 67.9688 102.251 68.6084 102.31 69.2725C102.378 69.9365 102.534 70.5518 102.778 71.1182C103.032 71.6846 103.398 72.1484 103.877 72.5098C104.355 72.8711 104.976 73.0615 105.737 73.0811C106.548 73.1006 107.261 72.9443 107.876 72.6123C108.491 72.2705 109.014 71.8115 109.443 71.2354C109.883 70.6592 110.229 70.0195 110.483 69.3164C110.747 68.6133 110.923 67.915 111.011 67.2217L111.04 66.8848C111.108 66.2695 111.108 65.6299 111.04 64.9658C110.981 64.292 110.825 63.667 110.571 63.0908C110.327 62.5049 109.966 62.0312 109.487 61.6699C109.009 61.2988 108.389 61.1035 107.627 61.084C106.816 61.0547 106.099 61.2158 105.474 61.5674C104.858 61.9092 104.336 62.373 103.906 62.959C103.477 63.5449 103.13 64.1943 102.866 64.9072C102.612 65.6104 102.441 66.3086 102.354 67.002ZM125.674 71.1914L127.754 59.1504H130.42L127.666 75H125.132L125.674 71.1914ZM126.67 67.998L127.754 67.9541C127.627 68.9502 127.402 69.8975 127.08 70.7959C126.758 71.6846 126.318 72.4756 125.762 73.1689C125.215 73.8525 124.531 74.3896 123.711 74.7803C122.9 75.1611 121.938 75.3369 120.825 75.3076C119.956 75.2783 119.229 75.1025 118.643 74.7803C118.066 74.458 117.612 74.0234 117.28 73.4766C116.948 72.9297 116.729 72.3047 116.621 71.6016C116.514 70.8984 116.499 70.1562 116.577 69.375L118.291 59.1504H120.942L119.229 69.4189C119.189 69.8486 119.185 70.2734 119.214 70.6934C119.243 71.1035 119.331 71.4795 119.478 71.8213C119.624 72.1631 119.849 72.4414 120.151 72.6562C120.464 72.8613 120.874 72.9736 121.382 72.9932C122.437 73.0322 123.33 72.8369 124.062 72.4072C124.795 71.9678 125.376 71.3623 125.806 70.5908C126.235 69.8193 126.523 68.9551 126.67 67.998ZM136.602 61.7578L134.302 75H131.65L134.404 59.1504H136.982L136.602 61.7578ZM141.743 59.0186L141.494 61.5674C141.289 61.5283 141.079 61.4941 140.864 61.4648C140.659 61.4355 140.454 61.4209 140.249 61.4209C139.614 61.4111 139.043 61.5088 138.535 61.7139C138.037 61.9092 137.593 62.1875 137.202 62.5488C136.821 62.9102 136.494 63.335 136.221 63.8232C135.957 64.3115 135.747 64.8389 135.591 65.4053L134.756 65.8447C134.863 65.0537 135.039 64.2432 135.283 63.4131C135.537 62.583 135.884 61.8164 136.323 61.1133C136.772 60.4102 137.334 59.8438 138.008 59.4141C138.691 58.9844 139.512 58.7842 140.469 58.8135C140.684 58.8135 140.894 58.833 141.099 58.8721C141.313 58.9111 141.528 58.96 141.743 59.0186ZM155.513 73.0811C156.157 73.0908 156.758 72.9688 157.314 72.7148C157.871 72.4609 158.345 72.0996 158.735 71.6309C159.126 71.1621 159.404 70.6201 159.57 70.0049L162.09 69.9902C161.934 71.0547 161.519 71.9873 160.845 72.7881C160.181 73.5889 159.365 74.2139 158.398 74.6631C157.441 75.1025 156.44 75.3125 155.396 75.293C154.282 75.2734 153.335 75.0439 152.554 74.6045C151.782 74.1553 151.162 73.5596 150.693 72.8174C150.225 72.0752 149.902 71.2402 149.727 70.3125C149.551 69.375 149.512 68.4131 149.609 67.4268L149.668 66.7969C149.785 65.7324 150.044 64.7217 150.444 63.7646C150.845 62.7979 151.377 61.9434 152.041 61.2012C152.715 60.4492 153.511 59.8633 154.429 59.4434C155.347 59.0234 156.377 58.8281 157.52 58.8574C158.633 58.877 159.6 59.1406 160.42 59.6484C161.24 60.1465 161.875 60.8252 162.324 61.6846C162.773 62.5439 162.998 63.5205 162.998 64.6143L160.508 64.5996C160.498 63.9746 160.376 63.3984 160.142 62.8711C159.907 62.3438 159.561 61.9189 159.102 61.5967C158.643 61.2744 158.076 61.0986 157.402 61.0693C156.592 61.0498 155.884 61.2012 155.278 61.5234C154.683 61.8457 154.175 62.29 153.755 62.8564C153.345 63.4131 153.018 64.0332 152.773 64.7168C152.539 65.4004 152.378 66.0938 152.29 66.7969L152.217 67.4121C152.158 68.0371 152.148 68.6768 152.188 69.3311C152.236 69.9854 152.373 70.5957 152.598 71.1621C152.822 71.7188 153.169 72.1729 153.638 72.5244C154.106 72.876 154.731 73.0615 155.513 73.0811ZM170.703 52.5L166.792 75H164.141L168.052 52.5H170.703ZM167.7 66.4746L166.616 66.4453C166.753 65.498 167.002 64.5703 167.363 63.6621C167.734 62.7441 168.218 61.9189 168.813 61.1865C169.419 60.4541 170.137 59.8779 170.967 59.458C171.807 59.0283 172.764 58.8281 173.838 58.8574C174.688 58.877 175.396 59.043 175.962 59.3555C176.538 59.6582 176.987 60.0732 177.31 60.6006C177.632 61.1279 177.847 61.7383 177.954 62.4316C178.062 63.1152 178.071 63.8428 177.983 64.6143L176.255 75H173.589L175.347 64.5703C175.415 63.9355 175.391 63.3643 175.273 62.8564C175.166 62.3389 174.922 61.9287 174.541 61.626C174.17 61.3135 173.633 61.1475 172.93 61.1279C172.188 61.1084 171.519 61.25 170.923 61.5527C170.327 61.8555 169.805 62.2705 169.355 62.7979C168.916 63.3154 168.555 63.8965 168.271 64.541C167.998 65.1758 167.808 65.8203 167.7 66.4746ZM185.791 59.1504L183.037 75H180.386L183.14 59.1504H185.791ZM183.667 54.9902C183.667 54.5312 183.809 54.1504 184.092 53.8477C184.385 53.5352 184.761 53.374 185.22 53.3643C185.679 53.3545 186.055 53.4961 186.348 53.7891C186.65 54.082 186.797 54.4531 186.787 54.9023C186.787 55.3516 186.636 55.7275 186.333 56.0303C186.04 56.3232 185.669 56.4746 185.22 56.4844C184.771 56.4941 184.399 56.3623 184.106 56.0889C183.813 55.8057 183.667 55.4395 183.667 54.9902ZM194.038 52.5L190.127 75H187.476L191.372 52.5H194.038ZM204.6 71.7627L207.939 52.5H210.605L206.694 75H204.277L204.6 71.7627ZM195.049 67.3682L195.078 67.0605C195.205 66.084 195.439 65.1074 195.781 64.1309C196.133 63.1543 196.606 62.2607 197.202 61.4502C197.798 60.6396 198.521 59.9951 199.37 59.5166C200.22 59.0381 201.211 58.8135 202.344 58.8428C203.359 58.8721 204.209 59.1113 204.893 59.5605C205.576 60.0098 206.113 60.6055 206.504 61.3477C206.904 62.0801 207.173 62.8857 207.31 63.7646C207.456 64.6436 207.5 65.5273 207.441 66.416L207.28 67.7637C207.114 68.7109 206.841 69.6387 206.46 70.5469C206.079 71.4551 205.586 72.2754 204.98 73.0078C204.385 73.7305 203.667 74.3018 202.827 74.7217C201.997 75.1416 201.045 75.3369 199.971 75.3076C198.936 75.2686 198.076 75 197.393 74.502C196.719 74.0039 196.191 73.3643 195.811 72.583C195.439 71.792 195.195 70.9424 195.078 70.0342C194.971 69.1162 194.961 68.2275 195.049 67.3682ZM197.773 67.0312L197.744 67.3389C197.676 67.9248 197.651 68.5449 197.671 69.1992C197.7 69.8438 197.812 70.4541 198.008 71.0303C198.203 71.5967 198.521 72.0654 198.96 72.4365C199.399 72.7979 199.995 72.9932 200.747 73.0225C201.548 73.042 202.29 72.8613 202.974 72.4805C203.657 72.0996 204.243 71.5918 204.731 70.957C205.22 70.3223 205.571 69.6338 205.786 68.8916L206.357 65.332C206.387 64.7949 206.323 64.2822 206.167 63.7939C206.011 63.2959 205.776 62.8516 205.464 62.4609C205.161 62.0703 204.785 61.7578 204.336 61.5234C203.896 61.2793 203.403 61.1523 202.856 61.1426C202.036 61.1133 201.328 61.2744 200.732 61.626C200.137 61.9678 199.634 62.4316 199.224 63.0176C198.823 63.5938 198.506 64.2334 198.271 64.9365C198.037 65.6396 197.871 66.3379 197.773 67.0312ZM227.349 59.1504L226.982 61.2305H218.647L219.014 59.1504H227.349ZM222.5 55.2979H225.137L222.456 71.1035C222.427 71.4453 222.437 71.7529 222.485 72.0264C222.534 72.2998 222.651 72.5195 222.837 72.6855C223.022 72.8418 223.306 72.9248 223.687 72.9346C223.901 72.9346 224.111 72.9199 224.316 72.8906C224.531 72.8516 224.746 72.8174 224.961 72.7881L224.771 75.0146C224.458 75.1025 224.136 75.166 223.804 75.2051C223.481 75.2539 223.159 75.2734 222.837 75.2637C222.026 75.2539 221.392 75.0488 220.933 74.6484C220.474 74.248 220.161 73.7305 219.995 73.0957C219.829 72.4609 219.78 71.7822 219.849 71.0596L222.5 55.2979ZM234.219 52.5L230.308 75H227.656L231.567 52.5H234.219ZM231.216 66.4746L230.132 66.4453C230.269 65.498 230.518 64.5703 230.879 63.6621C231.25 62.7441 231.733 61.9189 232.329 61.1865C232.935 60.4541 233.652 59.8779 234.482 59.458C235.322 59.0283 236.279 58.8281 237.354 58.8574C238.203 58.877 238.911 59.043 239.478 59.3555C240.054 59.6582 240.503 60.0732 240.825 60.6006C241.147 61.1279 241.362 61.7383 241.47 62.4316C241.577 63.1152 241.587 63.8428 241.499 64.6143L239.771 75H237.104L238.862 64.5703C238.931 63.9355 238.906 63.3643 238.789 62.8564C238.682 62.3389 238.438 61.9287 238.057 61.626C237.686 61.3135 237.148 61.1475 236.445 61.1279C235.703 61.1084 235.034 61.25 234.438 61.5527C233.843 61.8555 233.32 62.2705 232.871 62.7979C232.432 63.3154 232.07 63.8965 231.787 64.541C231.514 65.1758 231.323 65.8203 231.216 66.4746ZM250.391 75.293C249.307 75.2734 248.364 75.0586 247.563 74.6484C246.772 74.2285 246.123 73.667 245.615 72.9639C245.117 72.251 244.761 71.4404 244.546 70.5322C244.331 69.624 244.268 68.6719 244.355 67.6758L244.414 67.0459C244.512 66.0303 244.761 65.0342 245.161 64.0576C245.562 63.0713 246.094 62.1826 246.758 61.3916C247.432 60.6006 248.223 59.9756 249.131 59.5166C250.049 59.0479 251.064 58.8281 252.178 58.8574C253.281 58.877 254.199 59.1113 254.932 59.5605C255.664 60.0098 256.235 60.6055 256.646 61.3477C257.065 62.0801 257.339 62.9053 257.466 63.8232C257.593 64.7314 257.603 65.6641 257.495 66.6211L257.334 67.8369H245.835L246.187 65.625L254.961 65.6396L255.005 65.4053C255.103 64.7021 255.063 64.0234 254.888 63.3691C254.712 62.7148 254.39 62.1777 253.921 61.7578C253.462 61.3281 252.842 61.1035 252.061 61.084C251.25 61.0547 250.547 61.2207 249.951 61.582C249.355 61.9336 248.857 62.4121 248.457 63.0176C248.057 63.6133 247.739 64.2676 247.505 64.9805C247.28 65.6836 247.124 66.3721 247.036 67.0459L246.978 67.6611C246.919 68.2861 246.938 68.916 247.036 69.5508C247.134 70.1855 247.319 70.7666 247.593 71.2939C247.876 71.8115 248.267 72.2363 248.765 72.5684C249.263 72.8906 249.878 73.0615 250.61 73.0811C251.499 73.1006 252.295 72.9102 252.998 72.5098C253.711 72.0996 254.36 71.582 254.946 70.957L256.455 72.2461C255.996 72.9199 255.449 73.4863 254.814 73.9453C254.18 74.4043 253.486 74.7461 252.734 74.9707C251.982 75.1953 251.201 75.3027 250.391 75.293ZM40.4932 94.1504H42.9248L40.2734 109.648C40.0879 110.967 39.6631 112.129 38.999 113.135C38.3447 114.141 37.4854 114.922 36.4209 115.479C35.3662 116.035 34.1602 116.299 32.8027 116.27C32.0898 116.25 31.3916 116.128 30.708 115.903C30.0244 115.679 29.3945 115.361 28.8184 114.951C28.2422 114.541 27.7588 114.038 27.3682 113.442L28.8916 111.86C29.3506 112.515 29.8926 113.032 30.5176 113.413C31.1523 113.804 31.875 114.014 32.6855 114.043C33.5742 114.062 34.3604 113.896 35.0439 113.545C35.7373 113.203 36.2988 112.71 36.7285 112.065C37.168 111.421 37.4561 110.664 37.5928 109.795L39.6729 97.5049L40.4932 94.1504ZM28.5254 102.368L28.5693 102.046C28.6865 101.069 28.916 100.093 29.2578 99.1162C29.6094 98.1396 30.0781 97.251 30.6641 96.4502C31.25 95.6396 31.9678 95 32.8174 94.5312C33.667 94.0527 34.6582 93.8232 35.791 93.8428C36.8164 93.8721 37.6709 94.1113 38.3545 94.5605C39.0381 95.0098 39.5752 95.6055 39.9658 96.3477C40.3662 97.0801 40.6348 97.8857 40.7715 98.7646C40.918 99.6436 40.9619 100.527 40.9033 101.416L40.7422 102.764C40.5762 103.711 40.3027 104.639 39.9219 105.547C39.541 106.455 39.0479 107.275 38.4424 108.008C37.8369 108.73 37.1143 109.302 36.2744 109.722C35.4443 110.142 34.4971 110.337 33.4326 110.308C32.3877 110.269 31.5234 110 30.8398 109.502C30.166 109.004 29.6436 108.364 29.2725 107.583C28.9014 106.792 28.6621 105.942 28.5547 105.034C28.4473 104.116 28.4375 103.228 28.5254 102.368ZM31.2354 102.031L31.1914 102.354C31.123 102.939 31.1035 103.555 31.1328 104.199C31.1621 104.844 31.2744 105.454 31.4697 106.03C31.665 106.597 31.9775 107.065 32.4072 107.437C32.8467 107.798 33.4424 107.988 34.1943 108.008C34.9951 108.037 35.7373 107.861 36.4209 107.48C37.1045 107.1 37.6904 106.592 38.1787 105.957C38.667 105.322 39.0186 104.634 39.2334 103.892L39.8047 100.332C39.834 99.7949 39.7705 99.2773 39.6143 98.7793C39.458 98.2812 39.2236 97.8369 38.9111 97.4463C38.6084 97.0557 38.2373 96.7432 37.7979 96.5088C37.3584 96.2744 36.8604 96.1523 36.3037 96.1426C35.4834 96.1133 34.7754 96.2744 34.1797 96.626C33.584 96.9678 33.0811 97.4316 32.6709 98.0176C32.2705 98.6035 31.9531 99.248 31.7188 99.9512C31.4844 100.654 31.3232 101.348 31.2354 102.031ZM49.7656 94.1504L47.0117 110H44.3604L47.1143 94.1504H49.7656ZM47.6416 89.9902C47.6416 89.5312 47.7832 89.1504 48.0664 88.8477C48.3594 88.5352 48.7354 88.374 49.1943 88.3643C49.6533 88.3545 50.0293 88.4961 50.3223 88.7891C50.625 89.082 50.7715 89.4531 50.7617 89.9023C50.7617 90.3516 50.6104 90.7275 50.3076 91.0303C50.0146 91.3232 49.6436 91.4746 49.1943 91.4844C48.7451 91.4941 48.374 91.3623 48.0811 91.0889C47.7881 90.8057 47.6416 90.4395 47.6416 89.9902ZM55.1709 110H52.5195L55.5078 92.4951C55.6445 91.4307 55.957 90.498 56.4453 89.6973C56.9336 88.8867 57.583 88.2568 58.3936 87.8076C59.2041 87.3584 60.166 87.1387 61.2793 87.1484C61.6016 87.1582 61.9238 87.1875 62.2461 87.2363C62.5684 87.2754 62.8857 87.3291 63.1982 87.3975L62.876 89.624C62.6514 89.5752 62.417 89.5361 62.1729 89.5068C61.9385 89.4775 61.7041 89.458 61.4697 89.4482C60.8447 89.4482 60.3027 89.5801 59.8438 89.8438C59.3848 90.0977 59.0137 90.4541 58.7305 90.9131C58.457 91.3623 58.2715 91.8848 58.1738 92.4805L55.1709 110ZM61.1914 94.1504L60.8252 96.2305H52.4756L52.8564 94.1504H61.1914ZM70.5811 94.1504L70.2148 96.2305H61.8799L62.2461 94.1504H70.5811ZM65.7324 90.2979H68.3691L65.6885 106.104C65.6592 106.445 65.6689 106.753 65.7178 107.026C65.7666 107.3 65.8838 107.52 66.0693 107.686C66.2549 107.842 66.5381 107.925 66.9189 107.935C67.1338 107.935 67.3438 107.92 67.5488 107.891C67.7637 107.852 67.9785 107.817 68.1934 107.788L68.0029 110.015C67.6904 110.103 67.3682 110.166 67.0361 110.205C66.7139 110.254 66.3916 110.273 66.0693 110.264C65.2588 110.254 64.624 110.049 64.165 109.648C63.7061 109.248 63.3936 108.73 63.2275 108.096C63.0615 107.461 63.0127 106.782 63.0811 106.06L65.7324 90.2979ZM78.96 102.339L79.0039 102.002C79.1211 100.938 79.3848 99.9121 79.7949 98.9258C80.2148 97.9395 80.7666 97.0605 81.4502 96.2891C82.1338 95.5176 82.9443 94.9121 83.8818 94.4727C84.8193 94.0332 85.8643 93.8281 87.0166 93.8574C88.1299 93.877 89.082 94.1162 89.873 94.5752C90.6738 95.0342 91.3184 95.6445 91.8066 96.4062C92.3047 97.1582 92.6514 98.0078 92.8467 98.9551C93.042 99.9023 93.0908 100.879 92.9932 101.885L92.9639 102.222C92.8369 103.286 92.5635 104.307 92.1436 105.283C91.7236 106.26 91.167 107.129 90.4736 107.891C89.79 108.652 88.9795 109.253 88.042 109.692C87.1045 110.122 86.0645 110.322 84.9219 110.293C83.8184 110.273 82.8662 110.039 82.0654 109.59C81.2744 109.131 80.6348 108.525 80.1465 107.773C79.6582 107.021 79.3164 106.177 79.1211 105.239C78.9258 104.302 78.8721 103.335 78.96 102.339ZM81.6406 102.002L81.6113 102.354C81.543 102.969 81.5381 103.608 81.5967 104.272C81.665 104.937 81.8213 105.552 82.0654 106.118C82.3193 106.685 82.6855 107.148 83.1641 107.51C83.6426 107.871 84.2627 108.062 85.0244 108.081C85.835 108.101 86.5479 107.944 87.1631 107.612C87.7783 107.271 88.3008 106.812 88.7305 106.235C89.1699 105.659 89.5166 105.02 89.7705 104.316C90.0342 103.613 90.21 102.915 90.2979 102.222L90.3271 101.885C90.3955 101.27 90.3955 100.63 90.3271 99.9658C90.2686 99.292 90.1123 98.667 89.8584 98.0908C89.6143 97.5049 89.2529 97.0312 88.7744 96.6699C88.2959 96.2988 87.6758 96.1035 86.9141 96.084C86.1035 96.0547 85.3857 96.2158 84.7607 96.5674C84.1455 96.9092 83.623 97.373 83.1934 97.959C82.7637 98.5449 82.417 99.1943 82.1533 99.9072C81.8994 100.61 81.7285 101.309 81.6406 102.002ZM98.8232 110H96.1719L99.1602 92.4951C99.2969 91.4307 99.6094 90.498 100.098 89.6973C100.586 88.8867 101.235 88.2568 102.046 87.8076C102.856 87.3584 103.818 87.1387 104.932 87.1484C105.254 87.1582 105.576 87.1875 105.898 87.2363C106.221 87.2754 106.538 87.3291 106.851 87.3975L106.528 89.624C106.304 89.5752 106.069 89.5361 105.825 89.5068C105.591 89.4775 105.356 89.458 105.122 89.4482C104.497 89.4482 103.955 89.5801 103.496 89.8438C103.037 90.0977 102.666 90.4541 102.383 90.9131C102.109 91.3623 101.924 91.8848 101.826 92.4805L98.8232 110ZM104.844 94.1504L104.478 96.2305H96.1279L96.5088 94.1504H104.844ZM118.965 87.5L115.054 110H112.402L116.313 87.5H118.965ZM115.962 101.475L114.878 101.445C115.015 100.498 115.264 99.5703 115.625 98.6621C115.996 97.7441 116.479 96.9189 117.075 96.1865C117.681 95.4541 118.398 94.8779 119.229 94.458C120.068 94.0283 121.025 93.8281 122.1 93.8574C122.949 93.877 123.657 94.043 124.224 94.3555C124.8 94.6582 125.249 95.0732 125.571 95.6006C125.894 96.1279 126.108 96.7383 126.216 97.4316C126.323 98.1152 126.333 98.8428 126.245 99.6143L124.517 110H121.851L123.608 99.5703C123.677 98.9355 123.652 98.3643 123.535 97.8564C123.428 97.3389 123.184 96.9287 122.803 96.626C122.432 96.3135 121.895 96.1475 121.191 96.1279C120.449 96.1084 119.78 96.25 119.185 96.5527C118.589 96.8555 118.066 97.2705 117.617 97.7979C117.178 98.3154 116.816 98.8965 116.533 99.541C116.26 100.176 116.069 100.82 115.962 101.475ZM138.008 107.29L139.326 99.1016C139.395 98.4961 139.336 97.9639 139.15 97.5049C138.975 97.0459 138.677 96.6895 138.257 96.4355C137.847 96.1816 137.329 96.0449 136.704 96.0254C136.157 96.0156 135.62 96.1035 135.093 96.2891C134.575 96.4746 134.126 96.7529 133.745 97.124C133.364 97.4951 133.115 97.9639 132.998 98.5303L130.361 98.5449C130.43 97.7539 130.679 97.0654 131.108 96.4795C131.538 95.8838 132.075 95.3906 132.72 95C133.364 94.5996 134.058 94.3066 134.8 94.1211C135.542 93.9258 136.265 93.833 136.968 93.8428C138.032 93.8623 138.955 94.0918 139.736 94.5312C140.527 94.9609 141.123 95.5664 141.523 96.3477C141.924 97.1289 142.07 98.0664 141.963 99.1602L140.747 106.543C140.659 107.08 140.605 107.622 140.586 108.169C140.576 108.706 140.64 109.233 140.776 109.751L140.747 110L138.066 110.015C137.959 109.565 137.905 109.111 137.905 108.652C137.915 108.193 137.949 107.739 138.008 107.29ZM139.634 100.391L139.326 102.295L136.821 102.28C136.294 102.28 135.737 102.319 135.151 102.397C134.565 102.476 134.009 102.622 133.481 102.837C132.954 103.052 132.51 103.364 132.148 103.774C131.787 104.175 131.567 104.697 131.489 105.342C131.431 105.869 131.494 106.328 131.68 106.719C131.875 107.1 132.168 107.397 132.559 107.612C132.949 107.827 133.403 107.939 133.921 107.949C134.595 107.959 135.259 107.827 135.913 107.554C136.567 107.28 137.139 106.89 137.627 106.382C138.115 105.874 138.452 105.288 138.638 104.624L139.604 105.928C139.419 106.572 139.116 107.168 138.696 107.715C138.276 108.252 137.778 108.716 137.202 109.106C136.636 109.497 136.025 109.8 135.371 110.015C134.717 110.229 134.062 110.332 133.408 110.322C132.52 110.303 131.714 110.103 130.991 109.722C130.278 109.341 129.712 108.809 129.292 108.125C128.882 107.432 128.706 106.626 128.765 105.708C128.823 104.702 129.087 103.857 129.556 103.174C130.024 102.49 130.625 101.943 131.357 101.533C132.1 101.123 132.91 100.83 133.789 100.654C134.668 100.469 135.537 100.376 136.396 100.376L139.634 100.391ZM149.126 97.3584L145.874 116.094H143.208L147.017 94.1504H149.448L149.126 97.3584ZM158.662 101.855L158.633 102.163C158.506 103.12 158.271 104.087 157.93 105.063C157.598 106.03 157.144 106.914 156.567 107.715C155.991 108.516 155.283 109.155 154.443 109.634C153.613 110.112 152.637 110.337 151.514 110.308C150.527 110.288 149.683 110.073 148.979 109.663C148.276 109.243 147.71 108.691 147.28 108.008C146.851 107.314 146.543 106.543 146.357 105.693C146.182 104.834 146.123 103.955 146.182 103.057L146.387 101.431C146.553 100.474 146.831 99.541 147.222 98.6328C147.622 97.7148 148.13 96.8896 148.745 96.1572C149.36 95.4248 150.088 94.8535 150.928 94.4434C151.777 94.0234 152.739 93.8281 153.813 93.8574C154.897 93.8867 155.776 94.1504 156.45 94.6484C157.134 95.1367 157.651 95.7764 158.003 96.5674C158.364 97.3486 158.589 98.2031 158.677 99.1309C158.765 100.049 158.76 100.957 158.662 101.855ZM155.967 102.148L156.011 101.826C156.079 101.24 156.094 100.62 156.055 99.9658C156.025 99.3115 155.903 98.7012 155.688 98.1348C155.483 97.5586 155.156 97.085 154.707 96.7139C154.268 96.3428 153.667 96.1475 152.905 96.1279C152.3 96.1084 151.724 96.2109 151.177 96.4355C150.64 96.6504 150.151 96.958 149.712 97.3584C149.272 97.749 148.896 98.2031 148.584 98.7207C148.271 99.2285 148.042 99.7656 147.896 100.332L147.266 104.155C147.256 104.849 147.407 105.493 147.72 106.089C148.032 106.675 148.457 107.148 148.994 107.51C149.541 107.871 150.161 108.062 150.854 108.081C151.665 108.101 152.368 107.939 152.964 107.598C153.569 107.246 154.077 106.777 154.487 106.191C154.897 105.596 155.225 104.946 155.469 104.243C155.713 103.53 155.879 102.832 155.967 102.148ZM165.474 97.3584L162.222 116.094H159.556L163.364 94.1504H165.796L165.474 97.3584ZM175.01 101.855L174.98 102.163C174.854 103.12 174.619 104.087 174.277 105.063C173.945 106.03 173.491 106.914 172.915 107.715C172.339 108.516 171.631 109.155 170.791 109.634C169.961 110.112 168.984 110.337 167.861 110.308C166.875 110.288 166.03 110.073 165.327 109.663C164.624 109.243 164.058 108.691 163.628 108.008C163.198 107.314 162.891 106.543 162.705 105.693C162.529 104.834 162.471 103.955 162.529 103.057L162.734 101.431C162.9 100.474 163.179 99.541 163.569 98.6328C163.97 97.7148 164.478 96.8896 165.093 96.1572C165.708 95.4248 166.436 94.8535 167.275 94.4434C168.125 94.0234 169.087 93.8281 170.161 93.8574C171.245 93.8867 172.124 94.1504 172.798 94.6484C173.481 95.1367 173.999 95.7764 174.351 96.5674C174.712 97.3486 174.937 98.2031 175.024 99.1309C175.112 100.049 175.107 100.957 175.01 101.855ZM172.314 102.148L172.358 101.826C172.427 101.24 172.441 100.62 172.402 99.9658C172.373 99.3115 172.251 98.7012 172.036 98.1348C171.831 97.5586 171.504 97.085 171.055 96.7139C170.615 96.3428 170.015 96.1475 169.253 96.1279C168.647 96.1084 168.071 96.2109 167.524 96.4355C166.987 96.6504 166.499 96.958 166.06 97.3584C165.62 97.749 165.244 98.2031 164.932 98.7207C164.619 99.2285 164.39 99.7656 164.243 100.332L163.613 104.155C163.604 104.849 163.755 105.493 164.067 106.089C164.38 106.675 164.805 107.148 165.342 107.51C165.889 107.871 166.509 108.062 167.202 108.081C168.013 108.101 168.716 107.939 169.312 107.598C169.917 107.246 170.425 106.777 170.835 106.191C171.245 105.596 171.572 104.946 171.816 104.243C172.061 103.53 172.227 102.832 172.314 102.148ZM182.598 94.1504L179.844 110H177.192L179.946 94.1504H182.598ZM180.474 89.9902C180.474 89.5312 180.615 89.1504 180.898 88.8477C181.191 88.5352 181.567 88.374 182.026 88.3643C182.485 88.3545 182.861 88.4961 183.154 88.7891C183.457 89.082 183.604 89.4531 183.594 89.9023C183.594 90.3516 183.442 90.7275 183.14 91.0303C182.847 91.3232 182.476 91.4746 182.026 91.4844C181.577 91.4941 181.206 91.3623 180.913 91.0889C180.62 90.8057 180.474 90.4395 180.474 89.9902ZM188.853 97.6953L186.714 110H184.062L186.816 94.1504H189.321L188.853 97.6953ZM187.622 101.475L186.538 101.445C186.675 100.498 186.924 99.5703 187.285 98.6621C187.656 97.7441 188.14 96.9189 188.735 96.1865C189.341 95.4541 190.059 94.8779 190.889 94.458C191.729 94.0283 192.686 93.8281 193.76 93.8574C194.609 93.877 195.317 94.043 195.884 94.3555C196.46 94.6582 196.909 95.0732 197.231 95.6006C197.554 96.1279 197.769 96.7383 197.876 97.4316C197.983 98.1152 197.993 98.8428 197.905 99.6143L196.177 110H193.511L195.269 99.5703C195.337 98.9355 195.312 98.3643 195.195 97.8564C195.088 97.3389 194.844 96.9287 194.463 96.626C194.092 96.3135 193.555 96.1475 192.852 96.1279C192.109 96.1084 191.44 96.25 190.845 96.5527C190.249 96.8555 189.727 97.2705 189.277 97.7979C188.838 98.3154 188.477 98.8965 188.193 99.541C187.92 100.176 187.729 100.82 187.622 101.475ZM206.855 110.293C205.771 110.273 204.829 110.059 204.028 109.648C203.237 109.229 202.588 108.667 202.08 107.964C201.582 107.251 201.226 106.44 201.011 105.532C200.796 104.624 200.732 103.672 200.82 102.676L200.879 102.046C200.977 101.03 201.226 100.034 201.626 99.0576C202.026 98.0713 202.559 97.1826 203.223 96.3916C203.896 95.6006 204.688 94.9756 205.596 94.5166C206.514 94.0479 207.529 93.8281 208.643 93.8574C209.746 93.877 210.664 94.1113 211.396 94.5605C212.129 95.0098 212.7 95.6055 213.11 96.3477C213.53 97.0801 213.804 97.9053 213.931 98.8232C214.058 99.7314 214.067 100.664 213.96 101.621L213.799 102.837H202.3L202.651 100.625L211.426 100.64L211.47 100.405C211.567 99.7021 211.528 99.0234 211.353 98.3691C211.177 97.7148 210.854 97.1777 210.386 96.7578C209.927 96.3281 209.307 96.1035 208.525 96.084C207.715 96.0547 207.012 96.2207 206.416 96.582C205.82 96.9336 205.322 97.4121 204.922 98.0176C204.521 98.6133 204.204 99.2676 203.97 99.9805C203.745 100.684 203.589 101.372 203.501 102.046L203.442 102.661C203.384 103.286 203.403 103.916 203.501 104.551C203.599 105.186 203.784 105.767 204.058 106.294C204.341 106.812 204.731 107.236 205.229 107.568C205.728 107.891 206.343 108.062 207.075 108.081C207.964 108.101 208.76 107.91 209.463 107.51C210.176 107.1 210.825 106.582 211.411 105.957L212.92 107.246C212.461 107.92 211.914 108.486 211.279 108.945C210.645 109.404 209.951 109.746 209.199 109.971C208.447 110.195 207.666 110.303 206.855 110.293ZM225.371 105.708C225.459 105.103 225.347 104.629 225.034 104.287C224.731 103.945 224.331 103.687 223.833 103.511C223.345 103.325 222.866 103.174 222.397 103.057C221.812 102.91 221.221 102.729 220.625 102.515C220.029 102.3 219.482 102.026 218.984 101.694C218.496 101.353 218.105 100.933 217.812 100.435C217.529 99.9268 217.402 99.3115 217.432 98.5889C217.471 97.8076 217.676 97.1191 218.047 96.5234C218.428 95.9277 218.916 95.4297 219.512 95.0293C220.117 94.6289 220.776 94.3311 221.489 94.1357C222.202 93.9404 222.91 93.8477 223.613 93.8574C224.609 93.877 225.513 94.082 226.323 94.4727C227.144 94.8633 227.793 95.4248 228.271 96.1572C228.75 96.8896 228.975 97.7783 228.945 98.8232L226.323 98.8086C226.343 98.252 226.23 97.7734 225.986 97.373C225.742 96.9727 225.405 96.665 224.976 96.4502C224.546 96.2256 224.058 96.1084 223.511 96.0986C222.993 96.0889 222.485 96.1719 221.987 96.3477C221.489 96.5137 221.064 96.7773 220.713 97.1387C220.361 97.4902 220.146 97.9492 220.068 98.5156C220.01 98.9355 220.073 99.2822 220.259 99.5557C220.444 99.8193 220.698 100.034 221.021 100.2C221.353 100.356 221.699 100.488 222.061 100.596C222.432 100.693 222.769 100.781 223.071 100.859C223.872 101.084 224.663 101.367 225.444 101.709C226.226 102.051 226.86 102.524 227.349 103.13C227.837 103.726 228.057 104.512 228.008 105.488C227.969 106.318 227.749 107.041 227.349 107.656C226.958 108.262 226.45 108.765 225.825 109.165C225.21 109.556 224.531 109.844 223.789 110.029C223.047 110.215 222.305 110.303 221.562 110.293C220.537 110.273 219.58 110.063 218.691 109.663C217.812 109.253 217.109 108.667 216.582 107.905C216.055 107.134 215.806 106.196 215.835 105.093L218.486 105.107C218.486 105.742 218.618 106.279 218.882 106.719C219.155 107.148 219.531 107.476 220.01 107.7C220.488 107.925 221.035 108.042 221.65 108.052C222.168 108.062 222.695 107.993 223.232 107.847C223.779 107.7 224.248 107.456 224.639 107.114C225.039 106.763 225.283 106.294 225.371 105.708ZM240.4 105.708C240.488 105.103 240.376 104.629 240.063 104.287C239.761 103.945 239.36 103.687 238.862 103.511C238.374 103.325 237.896 103.174 237.427 103.057C236.841 102.91 236.25 102.729 235.654 102.515C235.059 102.3 234.512 102.026 234.014 101.694C233.525 101.353 233.135 100.933 232.842 100.435C232.559 99.9268 232.432 99.3115 232.461 98.5889C232.5 97.8076 232.705 97.1191 233.076 96.5234C233.457 95.9277 233.945 95.4297 234.541 95.0293C235.146 94.6289 235.806 94.3311 236.519 94.1357C237.231 93.9404 237.939 93.8477 238.643 93.8574C239.639 93.877 240.542 94.082 241.353 94.4727C242.173 94.8633 242.822 95.4248 243.301 96.1572C243.779 96.8896 244.004 97.7783 243.975 98.8232L241.353 98.8086C241.372 98.252 241.26 97.7734 241.016 97.373C240.771 96.9727 240.435 96.665 240.005 96.4502C239.575 96.2256 239.087 96.1084 238.54 96.0986C238.022 96.0889 237.515 96.1719 237.017 96.3477C236.519 96.5137 236.094 96.7773 235.742 97.1387C235.391 97.4902 235.176 97.9492 235.098 98.5156C235.039 98.9355 235.103 99.2822 235.288 99.5557C235.474 99.8193 235.728 100.034 236.05 100.2C236.382 100.356 236.729 100.488 237.09 100.596C237.461 100.693 237.798 100.781 238.101 100.859C238.901 101.084 239.692 101.367 240.474 101.709C241.255 102.051 241.89 102.524 242.378 103.13C242.866 103.726 243.086 104.512 243.037 105.488C242.998 106.318 242.778 107.041 242.378 107.656C241.987 108.262 241.479 108.765 240.854 109.165C240.239 109.556 239.561 109.844 238.818 110.029C238.076 110.215 237.334 110.303 236.592 110.293C235.566 110.273 234.609 110.063 233.721 109.663C232.842 109.253 232.139 108.667 231.611 107.905C231.084 107.134 230.835 106.196 230.864 105.093L233.516 105.107C233.516 105.742 233.647 106.279 233.911 106.719C234.185 107.148 234.561 107.476 235.039 107.7C235.518 107.925 236.064 108.042 236.68 108.052C237.197 108.062 237.725 107.993 238.262 107.847C238.809 107.7 239.277 107.456 239.668 107.114C240.068 106.763 240.312 106.294 240.4 105.708ZM252.5 88.6719L249.658 103.979H247.256L249.717 88.6719H252.5ZM246.172 108.682C246.182 108.223 246.328 107.842 246.611 107.539C246.904 107.227 247.28 107.065 247.739 107.056C248.188 107.046 248.56 107.188 248.853 107.48C249.155 107.773 249.302 108.145 249.292 108.594C249.292 109.043 249.141 109.419 248.838 109.722C248.545 110.024 248.174 110.181 247.725 110.19C247.275 110.2 246.904 110.063 246.611 109.78C246.318 109.497 246.172 109.131 246.172 108.682Z" fill="#343434"/>
<rect x="79" y="133" width="120" height="65" rx="32.5" fill="#FAFBFF"/>
<path d="M109.445 167.479H111.32C111.223 168.377 110.965 169.181 110.549 169.891C110.132 170.6 109.543 171.163 108.781 171.58C108.02 171.99 107.069 172.195 105.93 172.195C105.096 172.195 104.338 172.039 103.654 171.727C102.977 171.414 102.395 170.971 101.906 170.398C101.418 169.819 101.04 169.126 100.773 168.318C100.513 167.505 100.383 166.6 100.383 165.604V164.188C100.383 163.191 100.513 162.29 100.773 161.482C101.04 160.669 101.421 159.972 101.916 159.393C102.417 158.813 103.02 158.367 103.723 158.055C104.426 157.742 105.217 157.586 106.096 157.586C107.17 157.586 108.078 157.788 108.82 158.191C109.562 158.595 110.139 159.155 110.549 159.871C110.965 160.581 111.223 161.404 111.32 162.342H109.445C109.354 161.678 109.185 161.108 108.938 160.633C108.69 160.151 108.339 159.78 107.883 159.52C107.427 159.259 106.831 159.129 106.096 159.129C105.464 159.129 104.908 159.249 104.426 159.49C103.951 159.731 103.55 160.073 103.225 160.516C102.906 160.958 102.665 161.489 102.502 162.107C102.339 162.726 102.258 163.413 102.258 164.168V165.604C102.258 166.3 102.329 166.954 102.473 167.566C102.622 168.178 102.847 168.715 103.146 169.178C103.446 169.64 103.827 170.005 104.289 170.271C104.751 170.532 105.298 170.662 105.93 170.662C106.73 170.662 107.368 170.535 107.844 170.281C108.319 170.027 108.677 169.663 108.918 169.188C109.165 168.712 109.341 168.143 109.445 167.479ZM115.422 157V172H113.615V157H115.422ZM114.992 166.316L114.24 166.287C114.247 165.564 114.354 164.897 114.562 164.285C114.771 163.667 115.064 163.13 115.441 162.674C115.819 162.218 116.268 161.867 116.789 161.619C117.316 161.365 117.899 161.238 118.537 161.238C119.058 161.238 119.527 161.31 119.943 161.453C120.36 161.59 120.715 161.811 121.008 162.117C121.307 162.423 121.535 162.82 121.691 163.309C121.848 163.79 121.926 164.38 121.926 165.076V172H120.109V165.057C120.109 164.503 120.028 164.061 119.865 163.729C119.702 163.39 119.465 163.146 119.152 162.996C118.84 162.84 118.456 162.762 118 162.762C117.551 162.762 117.141 162.856 116.77 163.045C116.405 163.234 116.089 163.494 115.822 163.826C115.562 164.158 115.357 164.539 115.207 164.969C115.064 165.392 114.992 165.841 114.992 166.316ZM130.861 170.193V164.754C130.861 164.337 130.777 163.976 130.607 163.67C130.445 163.357 130.197 163.117 129.865 162.947C129.533 162.778 129.123 162.693 128.635 162.693C128.179 162.693 127.779 162.771 127.434 162.928C127.095 163.084 126.828 163.289 126.633 163.543C126.444 163.797 126.35 164.07 126.35 164.363H124.543C124.543 163.986 124.641 163.611 124.836 163.24C125.031 162.869 125.311 162.534 125.676 162.234C126.047 161.928 126.49 161.688 127.004 161.512C127.525 161.329 128.104 161.238 128.742 161.238C129.51 161.238 130.188 161.368 130.773 161.629C131.366 161.889 131.828 162.283 132.16 162.811C132.499 163.331 132.668 163.986 132.668 164.773V169.695C132.668 170.047 132.697 170.421 132.756 170.818C132.821 171.215 132.915 171.557 133.039 171.844V172H131.154C131.063 171.792 130.992 171.515 130.939 171.17C130.887 170.818 130.861 170.493 130.861 170.193ZM131.174 165.594L131.193 166.863H129.367C128.853 166.863 128.394 166.906 127.99 166.99C127.587 167.068 127.248 167.189 126.975 167.352C126.701 167.514 126.493 167.719 126.35 167.967C126.206 168.208 126.135 168.491 126.135 168.816C126.135 169.148 126.21 169.451 126.359 169.725C126.509 169.998 126.734 170.216 127.033 170.379C127.339 170.535 127.714 170.613 128.156 170.613C128.71 170.613 129.198 170.496 129.621 170.262C130.044 170.027 130.38 169.741 130.627 169.402C130.881 169.064 131.018 168.735 131.037 168.416L131.809 169.285C131.763 169.559 131.639 169.861 131.438 170.193C131.236 170.525 130.965 170.844 130.627 171.15C130.295 171.45 129.898 171.701 129.436 171.902C128.98 172.098 128.465 172.195 127.893 172.195C127.176 172.195 126.548 172.055 126.008 171.775C125.474 171.495 125.057 171.121 124.758 170.652C124.465 170.177 124.318 169.646 124.318 169.061C124.318 168.494 124.429 167.996 124.65 167.566C124.872 167.13 125.191 166.769 125.607 166.482C126.024 166.189 126.525 165.968 127.111 165.818C127.697 165.669 128.352 165.594 129.074 165.594H131.174ZM137.316 163.094V172H135.51V161.434H137.268L137.316 163.094ZM140.617 161.375L140.607 163.055C140.458 163.022 140.314 163.003 140.178 162.996C140.048 162.983 139.898 162.977 139.729 162.977C139.312 162.977 138.944 163.042 138.625 163.172C138.306 163.302 138.036 163.484 137.814 163.719C137.593 163.953 137.417 164.233 137.287 164.559C137.163 164.878 137.082 165.229 137.043 165.613L136.535 165.906C136.535 165.268 136.597 164.669 136.721 164.109C136.851 163.549 137.049 163.055 137.316 162.625C137.583 162.189 137.922 161.85 138.332 161.609C138.749 161.362 139.243 161.238 139.816 161.238C139.947 161.238 140.096 161.255 140.266 161.287C140.435 161.313 140.552 161.342 140.617 161.375ZM144.25 161.434V172H142.434V161.434H144.25ZM142.297 158.631C142.297 158.338 142.385 158.09 142.561 157.889C142.743 157.687 143.01 157.586 143.361 157.586C143.706 157.586 143.97 157.687 144.152 157.889C144.341 158.09 144.436 158.338 144.436 158.631C144.436 158.911 144.341 159.152 144.152 159.354C143.97 159.549 143.706 159.646 143.361 159.646C143.01 159.646 142.743 159.549 142.561 159.354C142.385 159.152 142.297 158.911 142.297 158.631ZM151.574 161.434V162.82H145.861V161.434H151.574ZM147.795 158.865H149.602V169.383C149.602 169.741 149.657 170.011 149.768 170.193C149.878 170.376 150.021 170.496 150.197 170.555C150.373 170.613 150.562 170.643 150.764 170.643C150.913 170.643 151.07 170.63 151.232 170.604C151.402 170.571 151.529 170.545 151.613 170.525L151.623 172C151.48 172.046 151.291 172.088 151.057 172.127C150.829 172.173 150.552 172.195 150.227 172.195C149.784 172.195 149.377 172.107 149.006 171.932C148.635 171.756 148.339 171.463 148.117 171.053C147.902 170.636 147.795 170.076 147.795 169.373V158.865ZM156.662 170.906L159.602 161.434H161.535L157.297 173.631C157.199 173.891 157.069 174.171 156.906 174.471C156.75 174.777 156.548 175.066 156.301 175.34C156.053 175.613 155.754 175.835 155.402 176.004C155.057 176.18 154.644 176.268 154.162 176.268C154.019 176.268 153.837 176.248 153.615 176.209C153.394 176.17 153.238 176.137 153.146 176.111L153.137 174.646C153.189 174.653 153.27 174.66 153.381 174.666C153.498 174.679 153.579 174.686 153.625 174.686C154.035 174.686 154.383 174.63 154.67 174.52C154.956 174.415 155.197 174.236 155.393 173.982C155.594 173.735 155.767 173.393 155.91 172.957L156.662 170.906ZM154.504 161.434L157.248 169.637L157.717 171.541L156.418 172.205L152.531 161.434H154.504Z" fill="#343434"/>
<path d="M171.29 160.71C170.9 161.1 170.9 161.73 171.29 162.12L175.17 166L171.29 169.88C170.9 170.27 170.9 170.9 171.29 171.29C171.68 171.68 172.31 171.68 172.7 171.29L177.29 166.7C177.68 166.31 177.68 165.68 177.29 165.29L172.7 160.7C172.32 160.32 171.68 160.32 171.29 160.71Z" fill="#676767"/>
</svg>
