<svg width="52" height="46" viewBox="0 0 52 46" fill="none" xmlns="http://www.w3.org/2000/svg">
<path d="M28.0667 1.7208L15.3708 14.4166C14.5229 15.2646 14.0417 16.4333 14.0417 17.6479V40.5416C14.0417 43.0625 16.1042 45.125 18.625 45.125H39.25C41.0833 45.125 42.7333 44.025 43.4667 42.3521L50.9375 24.9125C52.8625 20.375 49.5396 15.3333 44.6125 15.3333H31.6646L33.8417 4.83747C34.0708 3.69164 33.7271 2.52289 32.9021 1.69789C31.55 0.36872 29.3958 0.36872 28.0667 1.7208ZM4.875 45.125C7.39583 45.125 9.45833 43.0625 9.45833 40.5416V22.2083C9.45833 19.6875 7.39583 17.625 4.875 17.625C2.35416 17.625 0.291664 19.6875 0.291664 22.2083V40.5416C0.291664 43.0625 2.35416 45.125 4.875 45.125Z" fill="#7BD3EA"/>
</svg>
