<svg width="43" height="51" viewBox="0 0 43 51" fill="none" xmlns="http://www.w3.org/2000/svg">
<path d="M19.6437 1.11669L3.60208 8.24377C1.95208 8.9771 0.875 10.6271 0.875 12.4375V23.2084C0.875 35.9271 9.675 47.8209 21.5 50.7084C33.325 47.8209 42.125 35.9271 42.125 23.2084V12.4375C42.125 10.6271 41.0479 8.9771 39.3979 8.24377L23.3563 1.11669C22.1875 0.589604 20.8125 0.589604 19.6437 1.11669ZM15.2896 35.3313L9.35417 29.3959C8.46042 28.5021 8.46042 27.0584 9.35417 26.1646C10.2479 25.2709 11.6917 25.2709 12.5854 26.1646L16.9167 30.4729L30.3917 16.9979C31.2854 16.1042 32.7292 16.1042 33.6229 16.9979C34.5167 17.8917 34.5167 19.3354 33.6229 20.2292L18.5208 35.3313C17.65 36.225 16.1833 36.225 15.2896 35.3313Z" fill="#7BD3EA"/>
</svg>
