<svg width="32" height="32" viewBox="0 0 32 32" fill="none" xmlns="http://www.w3.org/2000/svg">
<path d="M9.33337 24C7.86671 24 6.68004 25.2 6.68004 26.6667C6.68004 28.1333 7.86671 29.3333 9.33337 29.3333C10.8 29.3333 12 28.1333 12 26.6667C12 25.2 10.8 24 9.33337 24ZM1.33337 4C1.33337 4.73333 1.93337 5.33333 2.66671 5.33333H4.00004L8.80004 15.4533L7.00004 18.7067C6.02671 20.4933 7.30671 22.6667 9.33337 22.6667H24C24.7334 22.6667 25.3334 22.0667 25.3334 21.3333C25.3334 20.6 24.7334 20 24 20H9.33337L10.8 17.3333H20.7334C21.7334 17.3333 22.6134 16.7867 23.0667 15.96L27.84 7.30666C28.3334 6.42666 27.6934 5.33333 26.68 5.33333H6.94671L6.05337 3.42666C5.84004 2.96 5.36004 2.66666 4.85337 2.66666H2.66671C1.93337 2.66666 1.33337 3.26666 1.33337 4ZM22.6667 24C21.2 24 20.0134 25.2 20.0134 26.6667C20.0134 28.1333 21.2 29.3333 22.6667 29.3333C24.1334 29.3333 25.3334 28.1333 25.3334 26.6667C25.3334 25.2 24.1334 24 22.6667 24Z" fill="#676767"/>
</svg>
